<svg width="1358" height="632" viewBox="0 0 1358 632" fill="none" xmlns="http://www.w3.org/2000/svg">
<path fill-rule="evenodd" clip-rule="evenodd" d="M1128.67 55.2447L1128.64 55.3116L1128.61 55.4204C1127.77 57.8387 1126.91 60.3143 1126.02 62.8411C1132.52 61.6798 1138.49 60.6061 1144.44 59.5341C1162.06 56.5825 1179.61 53.7176 1197.23 50.8553C1201.59 50.1555 1205.94 49.4033 1210.3 48.6504C1219.87 46.9976 1229.45 45.3425 1239.07 44.2361C1262.48 41.5528 1285.98 41.0161 1309.02 47.3667C1340.56 56.1325 1357.91 78.852 1358 110.963C1358 135.651 1340.02 146.116 1319.68 144.595C1312.27 143.969 1305.04 142.091 1299.08 137.44C1296.55 135.472 1294.56 133.325 1293.57 130.552C1291.58 125.006 1286.7 122.77 1281.73 122.591C1280.22 122.562 1278.71 122.522 1277.19 122.483C1269.53 122.284 1261.8 122.083 1254.26 123.128C1130.81 140.302 1011.16 171.787 895.401 217.763C772.498 266.689 656.374 328.318 545.492 399.965C479.07 442.899 414.185 487.713 352.1 536.64C333.342 551.392 314.903 566.534 296.449 581.687L296.418 581.71C285.46 590.707 274.486 599.72 263.45 608.645C263.076 608.944 262.702 609.245 262.329 609.546L261.699 610.053C254.597 615.771 247.441 621.534 239.592 625.998C222.15 635.926 204.438 633.333 189.798 619.735C178.05 608.823 171.182 595.047 166.031 580.2C157.988 556.677 155.639 532.257 155.729 507.569C155.819 469.109 167.658 433.419 182.749 398.623C208.866 338.158 243.568 282.612 281.343 228.765C281.853 228.037 282.361 227.314 282.874 226.589L283.743 225.357C287.477 220.065 291.237 214.738 294.808 208.997C285.422 211.073 276.033 213.125 266.647 215.176C206.895 228.234 147.246 241.269 89.2172 260.518C89.6316 262.348 90.0797 264.044 90.5058 265.658C91.288 268.619 91.9974 271.305 92.2899 274.024C93.5549 284.938 88.675 293.257 78.4634 297.637C65.3598 303.185 52.0756 301.933 39.3336 297.102C18.9101 289.319 5.71624 275.278 2.46296 253.094C-0.428861 233.774 -1.51329 214.722 3.36664 195.49C4.99329 189.05 8.15621 185.025 14.6628 183.147C23.363 180.579 32.0323 177.847 40.7053 175.114C57.7054 169.757 74.7264 164.394 92.0188 160.248C162.597 143.253 233.356 127.064 304.206 111.321C323.796 106.928 343.708 104.01 363.563 101.101C367.156 100.575 370.746 100.049 374.331 99.5143C384.635 97.9935 395.116 98.2619 405.328 100.945C414.456 103.36 422.407 107.743 427.018 115.793C433.252 126.617 438.945 137.797 444.097 149.246C449.338 161.053 446.538 172.86 439.307 182.699C428.644 197.279 417.438 211.591 405.149 224.739C393.969 236.716 382.398 248.307 370.842 259.885C360.823 269.925 350.812 279.955 341.076 290.215C305.924 327.334 281.793 371.074 264.444 418.66C261.088 427.986 258.073 437.366 255.038 446.803C254.231 449.314 253.421 451.829 252.605 454.349C252.281 455.248 252.097 456.191 251.85 457.445C251.755 457.938 251.649 458.483 251.52 459.09C253.182 457.912 254.806 456.76 256.403 455.625C262.458 451.329 268.122 447.311 273.842 443.347C338.185 398.533 404.605 356.941 472.924 318.3L458.918 230.196C456.386 205.687 455.754 181.179 457.471 156.581C458.285 145.758 459.097 134.935 460.364 124.112C460.635 121.607 462.352 118.835 464.249 117.046C471.968 109.573 482.078 107.223 492.109 104.892L493.301 104.614L494.07 104.434C497.021 103.737 499.957 103.065 502.889 102.395C507.856 101.258 512.802 100.126 517.748 98.8879C526.875 96.652 532.659 98.3515 536.094 107.028C539.708 116.241 542.69 125.99 543.863 135.74C545.437 148.511 546.309 161.325 547.183 174.152C547.564 179.741 547.945 185.337 548.383 190.929C548.869 197.146 549.331 203.359 549.796 209.585L549.798 209.634C550.879 224.165 551.964 238.735 553.353 253.184C553.781 257.29 555.072 261.275 556.423 265.437C557.072 267.441 557.736 269.489 558.322 271.61C560.622 270.411 562.816 269.252 564.942 268.13C568.992 265.992 572.82 263.972 576.669 262.038C583.174 258.854 589.674 255.671 596.174 252.487L596.258 252.446L596.342 252.406L596.428 252.363L596.469 252.342C622.92 239.389 649.352 226.444 675.894 213.558C678.425 212.306 679.419 210.965 679.237 208.102C678.923 202.36 678.6 196.617 678.274 190.874L678.272 190.841C677.288 173.428 676.301 155.988 675.623 138.513C675.503 135.448 675.348 132.361 675.189 129.297C674.512 116.003 673.834 102.72 676.255 89.4961C678.514 76.8842 685.292 69.1918 697.854 66.9556C714.301 64.0039 730.568 65.6138 746.471 70.7123C762.83 75.9897 769.155 88.7806 769.696 104.434C770.077 115.087 769.835 125.741 769.596 136.364C769.493 140.9 769.39 145.439 769.335 149.962C769.275 154.748 769.294 159.573 769.315 164.565C769.325 167.127 769.335 169.745 769.335 172.413C779.322 168.426 788.842 164.593 798.691 160.627L800.964 159.712C798.435 149.068 795.994 138.602 793.553 128.048C792.933 125.362 792.277 122.676 791.618 119.986C789.975 113.27 788.325 106.526 787.228 99.693C783.705 78.4943 794.006 63.7356 815.152 59.5315C821.839 58.1897 828.888 57.5637 835.666 57.5637C843.799 57.5637 850.486 61.7677 854.101 68.7447C859.073 78.673 863.41 89.049 867.024 99.5143C869.577 106.716 871.544 114.141 873.563 121.758C874.401 124.921 875.251 128.13 876.152 131.357C876.751 131.192 877.34 131.04 877.915 130.89C878.899 130.634 879.847 130.387 880.76 130.105C896.345 125.296 911.92 120.465 927.49 115.636C956.511 106.634 985.549 97.6275 1014.6 88.7806C1017.49 87.8862 1019.12 86.5444 1020.29 83.9505C1029.96 62.9305 1040.17 42.1789 1053.46 23.1268C1054.63 21.4273 1055.9 19.7278 1057.16 18.0283C1070.08 0.317893 1081.47 -2.99162 1105.87 2.28572C1115.36 4.34298 1123.49 9.26255 1129.64 16.8655C1135.24 23.8424 1137.23 31.5348 1133.98 40.3006C1132.15 45.1912 1130.44 50.1074 1128.67 55.2447ZM1225.57 173.394C1229.73 173.305 1233.71 174.736 1237.68 177.956C1247.8 186.185 1256.03 196.024 1261.72 207.742C1262.89 210.157 1263.71 212.751 1264.25 215.344C1265.7 222.321 1262.44 227.331 1255.21 227.062C1245.45 226.704 1239.49 232.071 1234.25 238.87C1222.14 254.343 1214.01 271.964 1206.33 289.765C1185.99 336.724 1170.27 385.293 1154.81 433.952C1152.79 440.362 1150.77 446.78 1148.76 453.197C1143.87 468.805 1138.97 484.439 1133.85 499.964C1130.41 510.341 1125.44 520.089 1118.03 528.319C1103.75 544.24 1084.78 542.631 1073.39 524.562C1068.96 517.585 1067.7 510.25 1068.24 502.022C1073.57 417.315 1099.33 338.334 1136.2 262.484C1149.84 234.397 1165.12 207.205 1182.2 181.087C1184.37 177.777 1186.62 176.435 1190.69 175.899C1201.72 174.468 1212.83 173.573 1225.57 173.394ZM957.675 236.638C989.304 225.457 1021.84 214.724 1053.29 205.242C1053.48 205.177 1053.68 205.207 1054.05 205.262C1054.14 205.275 1054.23 205.289 1054.34 205.304C1054.4 205.313 1054.47 205.322 1054.55 205.332C1054.46 205.647 1054.38 205.951 1054.31 206.244C1054.18 206.783 1054.06 207.283 1053.83 207.747C1019.13 283.867 989.666 362.042 962.194 440.934L961.572 442.717C954.461 463.061 947.312 483.515 935.897 502.027C931.38 509.449 925.414 516.158 919.27 522.331C912.763 528.86 903.906 531.366 894.69 532.259C888.815 532.885 884.115 530.56 880.049 526.624C871.283 518.216 866.313 507.482 861.976 496.57C850.678 468.395 843.72 438.966 838.569 409.179C834.164 383.804 830.447 358.377 826.73 332.941L826.723 332.905C825.413 323.932 824.098 314.933 822.754 305.958C822.574 304.617 823.477 302.291 824.562 301.755C848.149 289.592 871.826 277.516 895.502 265.44C895.72 265.333 896 265.29 896.369 265.234C896.613 265.196 896.893 265.153 897.219 265.082C899.164 279.445 901.085 293.785 903.005 308.125L903.01 308.158C904.926 322.467 906.847 336.798 908.787 351.13C908.897 351.156 909 351.185 909.101 351.213L909.283 351.263C909.441 351.308 909.599 351.353 909.781 351.398C910.073 350.723 910.377 350.035 910.684 349.343C911.232 348.105 911.79 346.844 912.31 345.583L957.675 236.638ZM673.889 392.182C705.247 372.504 736.695 353.003 768.235 333.505C768.743 333.204 769.248 332.957 769.838 332.675C770.295 332.452 770.803 332.208 771.397 331.895C771.466 332.334 771.548 332.725 771.622 333.08C771.744 333.666 771.849 334.166 771.849 334.666C772.573 372.414 770.585 409.981 762.089 446.922C756.576 470.984 748.442 494.152 733.713 514.544C714.375 541.199 687.895 554.439 654.91 553.633C637.47 553.185 622.017 546.03 607.828 536.102C585.236 520.269 568.248 499.339 552.342 476.173C565.191 467.022 577.89 457.96 590.56 448.92C599.81 442.318 609.045 435.728 618.312 429.123C619.432 430.859 620.491 432.568 621.528 434.244C623.751 437.835 625.878 441.275 628.342 444.509C631.235 448.264 634.488 451.931 638.193 454.883C644.518 459.982 650.935 458.82 655.634 452.201C661.779 443.703 664.038 433.775 666.208 423.934L673.889 392.182Z" fill="#FFE300"/>
</svg>
